HIERARCHY
ROOT hip
{
  OFFSET 0 0 0
  CHANNELS 6 Xposition Yposition Zposition Zrotation Yrotation Xrotation
  JOINT abdomen
  {
    OFFSET 0 20.6881 -0.73152
    CHANNELS 3 Zrotation Xrotation Yrotation
    JOINT chest
    {
      OFFSET 0 11.7043 -0.48768
      CHANNELS 3 Zrotation Xrotation Yrotation
      JOINT neck
      {
        OFFSET 0 22.1894 -2.19456
        CHANNELS 3 Zrotation Xrotation Yrotation
        JOINT head
        {
          OFFSET -0.24384 7.07133 1.2192
          CHANNELS 3 Zrotation Xrotation Yrotation
          JOINT leftEye
          {
            OFFSET 4.14528 8.04674 8.04672
            CHANNELS 3 Zrotation Xrotation Yrotation
            End Site
            {
              OFFSET 1 0 0
            }
          }
          JOINT rightEye
          {
            OFFSET -3.6576 8.04674 8.04672
            CHANNELS 3 Zrotation Xrotation Yrotation
            End Site
            {
              OFFSET 1 0 0
            }
          }
        }
      }
      JOINT rCollar
      {
        OFFSET -2.68224 19.2634 -4.8768
        CHANNELS 3 Zrotation Xrotation Yrotation
        JOINT rShldr
        {
          OFFSET -8.77824 -1.95073 1.46304
          CHANNELS 3 Zrotation Xrotation Yrotation
          JOINT rForeArm
          {
            OFFSET -28.1742 -1.7115 0.48768
            CHANNELS 3 Zrotation Xrotation Yrotation
            JOINT rHand
            {
              OFFSET -22.5879 0.773209 7.07136
              CHANNELS 3 Zrotation Xrotation Yrotation
              JOINT rThumb1
              {
                OFFSET -1.2192 -0.487915 3.41376
                CHANNELS 3 Zrotation Xrotation Yrotation
                JOINT rThumb2
                {
                  OFFSET -3.37035 -0.52449 3.41376
                  CHANNELS 3 Zrotation Xrotation Yrotation
                  End Site
                  {
                    OFFSET -1.78271 -1.18214 1.43049
                  }
                }
              }
              JOINT rIndex1
              {
                OFFSET -7.75947 0.938293 5.60832
                CHANNELS 3 Zrotation Xrotation Yrotation
                JOINT rIndex2
                {
                  OFFSET -2.54057 -0.884171 1.56538
                  CHANNELS 3 Zrotation Xrotation Yrotation
                  End Site
                  {
                    OFFSET -1.62519 -0.234802 1.16502
                  }
                }
              }
              JOINT rMid1
              {
                OFFSET -8.24714 1.18213 3.41376
                CHANNELS 3 Zrotation Xrotation Yrotation
                JOINT rMid2
                {
                  OFFSET -3.10165 -0.590103 1.0647
                  CHANNELS 3 Zrotation Xrotation Yrotation
                  End Site
                  {
                    OFFSET -2.48547 -0.328903 0.83742
                  }
                }
              }
              JOINT rRing1
              {
                OFFSET -8.82822 0.546677 1.51678
                CHANNELS 3 Zrotation Xrotation Yrotation
                JOINT rRing2
                {
                  OFFSET -2.60934 -0.819778 -0.0198488
                  CHANNELS 3 Zrotation Xrotation Yrotation
                  End Site
                  {
                    OFFSET -2.33842 -0.294052 0.168128
                  }
                }
              }
              JOINT rPinky1
              {
                OFFSET -8.27202 -0.0477905 -0.4584
                CHANNELS 3 Zrotation Xrotation Yrotation
                JOINT rPinky2
                {
                  OFFSET -1.82734 -0.647385 -0.700984
                  CHANNELS 3 Zrotation Xrotation Yrotation
                  End Site
                  {
                    OFFSET -1.69225 -0.51767 -0.607171
                  }
                }
              }
            }
          }
        }
      }
      JOINT lCollar
      {
        OFFSET 2.68224 19.2634 -4.8768
        CHANNELS 3 Zrotation Xrotation Yrotation
        JOINT lShldr
        {
          OFFSET 8.77824 -1.95073 1.46304
          CHANNELS 3 Zrotation Xrotation Yrotation
          JOINT lForeArm
          {
            OFFSET 28.1742 -1.7115 0.48768
            CHANNELS 3 Zrotation Xrotation Yrotation
            JOINT lHand
            {
              OFFSET 22.5879 0.773209 7.07136
              CHANNELS 3 Zrotation Xrotation Yrotation
              JOINT lThumb1
              {
                OFFSET 1.2192 -0.487915 3.41376
                CHANNELS 3 Zrotation Xrotation Yrotation
                JOINT lThumb2
                {
                  OFFSET 3.37035 -0.52449 3.41376
                  CHANNELS 3 Zrotation Xrotation Yrotation
                  End Site
                  {
                    OFFSET 1.78271 -1.18214 1.43049
                  }
                }
              }
              JOINT lIndex1
              {
                OFFSET 7.75947 0.938293 5.60832
                CHANNELS 3 Zrotation Xrotation Yrotation
                JOINT lIndex2
                {
                  OFFSET 2.54057 -0.884171 1.56538
                  CHANNELS 3 Zrotation Xrotation Yrotation
                  End Site
                  {
                    OFFSET 1.62519 -0.234802 1.16502
                  }
                }
              }
              JOINT lMid1
              {
                OFFSET 8.24714 1.18213 3.41376
                CHANNELS 3 Zrotation Xrotation Yrotation
                JOINT lMid2
                {
                  OFFSET 3.10165 -0.590103 1.0647
                  CHANNELS 3 Zrotation Xrotation Yrotation
                  End Site
                  {
                    OFFSET 2.48547 -0.328903 0.83742
                  }
                }
              }
              JOINT lRing1
              {
                OFFSET 8.82822 0.546677 1.51678
                CHANNELS 3 Zrotation Xrotation Yrotation
                JOINT lRing2
                {
                  OFFSET 2.60934 -0.819778 -0.0198488
                  CHANNELS 3 Zrotation Xrotation Yrotation
                  End Site
                  {
                    OFFSET 2.33842 -0.294052 0.168128
                  }
                }
              }
              JOINT lPinky1
              {
                OFFSET 8.27202 -0.0477905 -0.4584
                CHANNELS 3 Zrotation Xrotation Yrotation
                JOINT lPinky2
                {
                  OFFSET 1.82734 -0.647385 -0.700984
                  CHANNELS 3 Zrotation Xrotation Yrotation
                  End Site
                  {
                    OFFSET 1.69225 -0.51767 -0.607171
                  }
                }
              }
            }
          }
        }
      }
    }
  }
  JOINT rButtock
  {
    OFFSET -8.77824 4.35084 1.2192
    CHANNELS 3 Zrotation Xrotation Yrotation
    JOINT rThigh
    {
      OFFSET 0 -1.70687 -2.19456
      CHANNELS 3 Zrotation Xrotation Yrotation
      JOINT rShin
      {
        OFFSET 0 -36.8199 0.73152
        CHANNELS 3 Zrotation Xrotation Yrotation
        JOINT rFoot
        {
          OFFSET 0.73152 -45.1104 -5.12064
          CHANNELS 3 Zrotation Xrotation Yrotation
          End Site
          {
            OFFSET -1.1221 -3.69964 12.103
          }
        }
      }
    }
  }
  JOINT lButtock
  {
    OFFSET 8.77824 4.35084 1.2192
    CHANNELS 3 Zrotation Xrotation Yrotation
    JOINT lThigh
    {
      OFFSET 0 -1.70687 -2.19456
      CHANNELS 3 Zrotation Xrotation Yrotation
      JOINT lShin
      {
        OFFSET 0 -36.8199 0.73152
        CHANNELS 3 Zrotation Xrotation Yrotation
        JOINT lFoot
        {
          OFFSET -0.73152 -45.1104 -5.12064
          CHANNELS 3 Zrotation Xrotation Yrotation
          End Site
          {
            OFFSET 1.1221 -3.69964 12.103
          }
        }
      }
    }
  }
}
MOTION
Frames:	4
Frame Time:	0.03333
0.0 0.0 0.0 0.0 0.0 0.0 0.0 0.0 0.0 0.0 0.0 0.0 0.0 0.0 0.0 0.0 0.0 0.0 0.0 0.0 0.0 0.0 0.0 0.0 0.0 0.0 0.0 0.0 0.0 0.0 0.0 0.0 0.0 0.0 0.0 0.0 0.0 0.0 0.0 0.0 0.0 0.0 0.0 0.0 0.0 0.0 0.0 0.0 0.0 0.0 0.0 0.0 0.0 0.0 0.0 0.0 0.0 0.0 0.0 0.0 0.0 0.0 0.0 0.0 0.0 0.0 0.0 0.0 0.0 0.0 0.0 0.0 0.0 0.0 0.0 0.0 0.0 0.0 0.0 0.0 0.0 0.0 0.0 0.0 0.0 0.0 0.0 0.0 0.0 0.0 0.0 0.0 0.0 0.0 0.0 0.0 0.0 0.0 0.0 0.0 0.0 0.0 0.0 0.0 0.0 0.0 0.0 0.0 0.0 0.0 0.0 0.0 0.0 0.0 0.0 0.0 0.0 0.0 0.0 0.0 0.0 0.0 0.0 0.0 0.0 0.0 0.0 0.0 0.0 0.0 0.0 0.0
-0.074 59.6141 -0.045899999999999996 157.047072 -72.665505 -157.95377 -14.367559 15.591942 0.0 5.319505 -10.586812 -3.549764 -14.326348 25.789348 -82.29189 35.454841 7.573077 51.398622 -0.001639 0.0 -0.003157 -0.001038 -0.0 0.00127 -83.245585 68.286769 86.372507 -167.878889 -9.165823 118.328663 130.101715 -80.431082 44.996343 164.314358 -25.373699 142.74236 -176.92889 -14.532023 89.658001 -135.903853 13.018206 69.116055 -145.340398 -6.264274 118.677025 -156.458781 -2.991162 118.732694 -160.099326 -4.901164 142.968172 -85.911433 63.86117 77.761939 -145.121298 1.974408 -179.748928 -155.692234 1.328627 -179.397059 5.665387 16.871724 5.088159 2.938023 2.219268 0.623265 149.905401 22.421776 -154.975284 120.623988 61.527571 -64.707338 -28.563951 -64.205189 42.966782 -166.38762 -20.269558 -144.002841 78.493465 38.702104 -42.741208 -22.155753 -25.514657 -20.138612 157.325859 -28.217238 -122.492655 -145.736579 -67.299847 -86.540267 -3.775312 -11.559425 1.813776 11.644382 33.742714 -9.240679 0.021771 -1.726094 0.542161 55.408585 -86.716237 77.065209 -0.099115 0.258496 -0.089709 5.238154 -17.921651 6.862521 -0.004077 -8e-05 -0.002039 -59.564138 -55.421696 -180.0 -73.477373 -42.485132 19.024183 137.899594 -56.727633 -112.887641 -179.99554 75.749722 -0.004601 -120.048413 78.119577 17.156111 40.006894 16.358131 -89.29156 95.963918 35.905747 0.490922
-0.10980000000000001 59.5313 -0.08850000000000001 156.778494 -72.70853 -157.694881 -14.679944 15.609515 3.431308 4.91267 -10.891198 -6.999894 -13.678171 21.655637 -58.872262 31.800516 -5.018615 31.243757 0.00167 -0.0 -0.003083 -0.004025 0.0 -0.002507 0.162619 -0.989989 -0.219434 -19.974012 -86.952443 -84.628011 69.677746 -0.101858 -22.011656 -167.279755 50.512249 142.141044 83.253465 -50.258628 33.616352 -31.898787 5.689643 -8.149113 -117.259226 28.443601 99.15224 -81.862016 55.001206 59.960373 2.099429 -6.305453 -1.082531 -163.44723 -5.227033 143.395422 -145.108038 3.757883 179.689612 -154.742468 -10.091282 -177.879101 -141.577299 1.570744 -138.571866 -127.88136 -27.841561 -125.493397 149.850259 22.601291 -154.912808 140.320866 63.620652 -82.827603 -54.641181 4.17495 23.11913 165.763156 52.726869 -141.124884 161.773729 0.529654 -89.181691 42.670379 -19.373014 -12.902701 -73.420019 -73.571279 -26.565092 -141.353939 -64.822156 -77.678395 -89.035696 -81.392802 -59.76223 25.573252 49.087069 -20.919388 114.670392 66.731824 -135.092826 -6.016901 -0.018214 5.72468 148.068846 21.784458 144.32861 14.63801 -29.790807 16.499468 179.989937 75.751507 0.006886 149.515961 5.94345 2.822867 -28.20015 73.853646 -48.977302 11.649554 -46.606291 109.175741 0.0 -0.000249 0.000636 12.626195 7.77483 -87.862672 -55.883139 -3.664325 -117.204243 171.828564 17.6474 102.666563
-0.1298 59.4683 -0.1526 156.813559 -72.821097 -157.735214 -12.567531 11.623619 -132.106734 2.587187 7.031929 127.362596 5.293437 18.792344 63.252984 -27.842649 -5.188093 -95.7295 -0.001085 0.0 -0.002958 -0.001085 0.0 -0.002958 -159.221456 -48.725025 170.567315 46.686649 69.202796 -77.377922 -128.263201 -15.388527 129.09041 88.748919 -68.229437 75.008533 -169.320107 -7.000659 89.922039 -63.836561 -3.132024 17.993294 73.420714 -73.570796 26.562609 -167.525715 -32.953563 113.287097 89.03579 -81.392468 59.760768 91.967188 -78.381861 63.170028 0.001082 0.063713 0.02043 -155.412517 -1.038214 171.970348 -144.110869 8.780432 -140.876701 1.275857 -2.683063 -2.843765 33.838336 -85.66568 55.255677 -106.527942 35.650996 85.939909 -91.129621 -37.905647 -71.560185 162.533497 56.624584 -138.740997 5.433791 5.264893 -1.077907 134.630683 -36.222145 -114.927441 -16.969075 -30.493201 5.90045 -171.907107 -47.424598 -100.331282 -78.537202 -80.919095 -49.687269 86.048032 64.053996 -77.69752 72.756075 -72.145091 89.771328 68.805954 -82.384266 94.792035 -31.510339 83.082568 -6.65048 148.979081 13.25831 143.055878 -179.98823 75.749474 -0.008053 149.512975 5.954782 -0.0 12.425315 76.43686 88.531169 -6.827481 -13.245778 -90.829259 179.985111 75.749638 0.010187 -114.201586 77.26714 -65.026964 -20.370476 44.772138 -68.499213 160.538965 -23.864019 -143.130574
